<html>
<head>
<meta charset="UTF-8">
<meta name="viewport" content="width=device-width, initial-scale=1.0"/>

<style>
.comment
{
    padding-left: 20px;
    margin-top: 4px;
    margin-right: 4px;
    margin-bottom: 4px;
    border: 2px #000 solid;
}
.submission
{
    border: 4px #00f solid;
    padding-left: 20px;
}
.hidden
{
    display: none;
}
</style>
</head>
<body><div class="submission" id="t3_5yeicq">
    <p class="userinfo">
        <a href="https://www.reddit.com/u/jodorowsthesky">jodorowsthesky</a>
        <span class="score"> | 19 points</span>
        <span class="timestamp"> | Mar 09 2017 11:17:35</span>
    </p>
    <strong>[MOVIE] Some Guy Who Kills People (2011) [720p][x264][2.84GB]</strong>
    <p><p>.nz/#!K9snVBzB!wvjqvbH9zmsNcYgIWb8Pv9kKGmnzMzoJt11-RtJfLcI  </p>
<pre><code>Format                                   : Matroska
Format version                           : Version 4 / Version 2
File size                                : 2.84 GiB
Duration                                 : 1 h 37 min
Overall bit rate                         : 4 165 kb/s
Encoded date                             : UTC 2016-08-31 04:41:00 / UTC 2016-08-30T18:22:54Z
Writing application                      : mkvmerge v9.2.0 ('Photograph') 32bit
Writing library                          : libebml v1.3.3 + libmatroska v1.4.4 / Lavf55.12.0

Video
ID                                       : 1
Format                                   : AVC
Format/Info                              : Advanced Video Codec
Format profile                           : High@L4.1
Format settings, CABAC                   : Yes
Format settings, ReFrames                : 4 frames
Codec ID                                 : V_MPEG4/ISO/AVC
Duration                                 : 1 h 37 min
Bit rate                                 : 3 767 kb/s
Width                                    : 1 280 pixels
Height                                   : 720 pixels
Display aspect ratio                     : 16:9
Frame rate mode                          : Constant
Frame rate                               : 23.976 (24000/1001) FPS
Color space                              : YUV
Chroma subsampling                       : 4:2:0
Bit depth                                : 8 bits
Scan type                                : Progressive
Bits/(Pixel*Frame)                       : 0.170
Stream size                              : 2.48 GiB (87%)
Writing library                          : x264 core 142 r2479 dd79a61
Encoding settings                        : cabac=1 / ref=1 / deblock=1:0:0 / analyse=0x3:0x113 / me=hex / subme=2 / psy=1 / psy_rd=1.00:0.00 / mixed_ref=0 / me_range=16 / chroma_me=1 / trellis=0 / 8x8dct=1 / cqm=0 / deadzone=21,11 / fast_pskip=1 / chroma_qp_offset=0 / threads=48 / lookahead_threads=5 / sliced_threads=0 / nr=0 / decimate=1 / interlaced=0 / bluray_compat=0 / constrained_intra=0 / bframes=3 / b_pyramid=2 / b_adapt=1 / b_bias=0 / direct=1 / weightb=1 / open_gop=0 / weightp=1 / keyint=240 / keyint_min=24 / scenecut=40 / intra_refresh=0 / rc_lookahead=10 / rc=abr / mbtree=1 / bitrate=3767 / ratetol=1.0 / qcomp=0.60 / qpmin=0 / qpmax=69 / qpstep=4 / vbv_maxrate=62500 / vbv_bufsize=78125 / nal_hrd=none / filler=0 / ip_ratio=1.40 / aq=1:1.00
Default                                  : Yes
Forced                                   : No
Color range                              : Limited
Color primaries                          : BT.709
Transfer characteristics                 : BT.709
Matrix coefficients                      : BT.709
Statistics Tags Issue                    : mkvmerge v9.2.0 ('Photograph') 32bit 2016-08-31 04:41:00 / mkvmerge v9.2.0 ('Photograph') 32bit 2016-08-31 04:41:00 / UTC 2016-08-30T18:22:54Z
FromStats_BitRate                        : 3715387
FromStats_Duration                       : 01:37:40.230000000
FromStats_FrameCount                     : 140505
FromStats_StreamSize                     : 2721628347

Audio
ID                                       : 2
Format                                   : AC-3
Format/Info                              : Audio Coding 3
Mode extension                           : CM (complete main)
Format settings, Endianness              : Big
Codec ID                                 : A_AC3
Duration                                 : 1 h 37 min
Bit rate mode                            : Constant
Bit rate                                 : 448 kb/s
Channel(s)                               : 6 channels
Channel positions                        : Front: L C R, Side: L R, LFE
Sampling rate                            : 48.0 kHz
Frame rate                               : 31.250 FPS (1536 spf)
Compression mode                         : Lossy
Delay relative to video                  : -5 ms
Stream size                              : 313 MiB (11%)
Title                                    : Surround
Language                                 : English
Default                                  : Yes
Forced                                   : No
Statistics Tags Issue                    : mkvmerge v9.2.0 ('Photograph') 32bit 2016-08-31 04:41:00 / mkvmerge v9.2.0 ('Photograph') 32bit 2016-08-31 04:41:00 / UTC 2016-08-30T18:22:54Z
FromStats_BitRate                        : 448000
FromStats_Duration                       : 01:37:40.192000000
FromStats_FrameCount                     : 183131
FromStats_StreamSize                     : 328170752
</code></pre></p>
    <p class="toolbar">
        <a href="https://www.reddit.com/r/megalinks/comments/5yeicq">permalink</a>
    </p>
</div>
<div class="comment" id="t1_depe84i">
    <p class="userinfo">
        <a
        class="toggle_hide_button"
        href="javascript:void(0)"
        onclick="toggle_collapse(this.parentElement.parentElement)">[-]
        </a>
        <a href="https://www.reddit.com/u/R3a1ityCheque">R3a1ityCheque</a>
        <span class="score"> | 10 points</span>
        <span class="timestamp"> | Mar 09 2017 12:40:27</span>
    </p>
    <div class="collapsible">
        <p>i thought this was one of those post titles designed to obfuscate the name of the file that's been uploaded. But apparently not!</p>
<p>I have no idea if this is a good movie but they definitely weren't trying too hard when they named it!</p>
        <p class="toolbar">
            <a href="https://www.reddit.com/r/megalinks/comments/5yeicq/_/depe84i">permalink</a>
        </p>
        
    </div>
</div>

<div class="comment" id="t1_depcce9">
    <p class="userinfo">
        <a
        class="toggle_hide_button"
        href="javascript:void(0)"
        onclick="toggle_collapse(this.parentElement.parentElement)">[-]
        </a>
        <a href="https://www.reddit.com/u/boltrop">boltrop</a>
        <span class="score"> | 2 points</span>
        <span class="timestamp"> | Mar 09 2017 11:21:12</span>
    </p>
    <div class="collapsible">
        <h3><a href="https://images-na.ssl-images-amazon.com/images/M/MV5BMTQxMTcwMDAyNV5BMl5BanBnXkFtZTcwNzYzNTQ4Nw@@._V1_.jpg">Some Guy Who Kills People</a> (2011)</h3>
<p><strong>Genre</strong>: Comedy, Crime, Drama, Horror, Mystery, Thriller</p>
<p><strong>Rating</strong>:  6.4 (4635 votes)</p>
<p><strong>Certification</strong>: R</p>
<p><strong>Runtime</strong>: 97 min</p>
<hr>
<blockquote>
<p><strong>Director(s)</strong>: <a href="https://www.imdb.com/name/nm0673512/">Jack Perez</a></p>
<p><strong>Writer(s)</strong>: <a href="https://www.imdb.com/name/nm1452838/">Ryan A. Levin</a></p>
<p><strong>Cast</strong>: <a href="https://www.imdb.com/name/nm0180984/">Kevin Corrigan</a>, <a href="https://www.imdb.com/name/nm0000960/">Barry Bostwick</a>, <a href="https://www.imdb.com/name/nm0000947/">Karen Black</a>, <a href="https://www.imdb.com/name/nm0280559/">Leo Fitzpatrick</a></p>
<p><strong>Plot</strong>: Ken Boyd, a lonely man fresh out of the loony bin, who sets out to kill those he deems responsible for his miserable life.</p>
</blockquote>
<hr>
<p>^This ^summary ^is ^taken ^from <a href="https://www.imdb.com/title/tt1568341/">^imdb.com</a> ^| ^For ^feedback ^or ^suggestions ^contact <a href="http://www.reddit.com/message/compose/?to=indigo6alpha">^/u/indigo6alpha</a></p>
        <p class="toolbar">
            <a href="https://www.reddit.com/r/megalinks/comments/5yeicq/_/depcce9">permalink</a>
        </p>
        
    </div>
</div>

<div class="comment" id="t1_depccbx">
    <p class="userinfo">
        <a
        class="toggle_hide_button"
        href="javascript:void(0)"
        onclick="toggle_collapse(this.parentElement.parentElement)">[-]
        </a>
        <a href="https://www.reddit.com/u/SubZorro">SubZorro</a>
        <span class="score"> | 1 points</span>
        <span class="timestamp"> | Mar 09 2017 11:21:05</span>
    </p>
    <div class="collapsible">
        <h5>Subtitles for this movie:</h5>
<hr>
<blockquote>
<ul>
<li>
<p><strong>Some.Guy.Who.Kills.People.2011.720p.BRrip.x264.YIFY</strong> - <code>1 CD</code> - <a href="http://dl.opensubtitles.org/en/download/vrf-a427877f/sub/5079459">Download Subtitle</a></p>
</li>
<li>
<p><strong>Some.Guy.Who.Kills.People.2011.DVDRiP.XVID-TASTE</strong> - <code>1 CD</code> - <a href="http://dl.opensubtitles.org/en/download/vrf-e862182c/sub/4972871">Download Subtitle</a></p>
</li>
<li>
<p><strong>Some.Guy.Who.Kills.People.2011.1080p.BRrip.x264.YIFY</strong> - <code>1 CD</code> - <a href="http://dl.opensubtitles.org/en/download/vrf-f563f751/sub/4703768">Download Subtitle</a></p>
</li>
<li>
<p><strong>Some.Guy.Who.Kills.People.2011.DVDRip.XviD-ViP3R</strong> - <code>1 CD</code> - <a href="http://dl.opensubtitles.org/en/download/vrf-42d57ed2/sub/4591932">Download Subtitle</a></p>
</li>
<li>
<p><strong>Some.Guy.Who.Kills.People.2011.DVDRip.XviD-TASTE</strong> - <code>1 CD</code> - <a href="http://dl.opensubtitles.org/en/download/vrf-560c95fa/sub/4790461">Download Subtitle</a></p>
</li>
</ul>
</blockquote>
<hr>
<p>^This ^list ^of ^subtitles ^are ^taken ^from <a href="http://www.opensubtitles.org">^opensubtitles.org</a> ^| ^For ^feedback ^or ^suggestions ^contact <a href="http://www.reddit.com/message/compose/?to=indigo6alpha">^/u/indigo6alpha</a></p>
        <p class="toolbar">
            <a href="https://www.reddit.com/r/megalinks/comments/5yeicq/_/depccbx">permalink</a>
        </p>
        
    </div>
</div>
</body>

<script>
function toggle_collapse(comment_div)
{
    var button = comment_div.getElementsByClassName("toggle_hide_button")[0];
    var collapsible = comment_div.getElementsByClassName("collapsible")[0];
    if (collapsible.classList.contains("hidden"))
    {
        collapsible.classList.remove("hidden");
        button.innerText = "[-]";
    }
    else
    {
        collapsible.classList.add("hidden");
        button.innerText = "[+]";
    }
}
</script>
</html>
